<svg width="251" height="26" viewBox="0 0 251 26" fill="none" xmlns="http://www.w3.org/2000/svg">
<path d="M11.0316 12.9358C9.07156 12.9358 7.41023 12.7865 6.04756 12.4878C4.6849 12.1891 3.58356 11.7691 2.74356 11.2278C1.90356 10.6678 1.28756 9.99581 0.895563 9.21181C0.522229 8.42781 0.335563 7.54114 0.335563 6.55181C0.335563 5.54381 0.512896 4.64781 0.867563 3.86381C1.2409 3.06114 1.83823 2.38914 2.65956 1.84781C3.49956 1.30647 4.6009 0.895808 5.96356 0.615807C7.32623 0.317141 9.01556 0.167808 11.0316 0.167808C13.0476 0.167808 14.7369 0.317141 16.0996 0.615807C17.4622 0.895808 18.5542 1.30647 19.3756 1.84781C20.2156 2.38914 20.8129 3.06114 21.1676 3.86381C21.5409 4.64781 21.7276 5.54381 21.7276 6.55181C21.7276 7.54114 21.5316 8.42781 21.1396 9.21181C20.7662 9.99581 20.1596 10.6678 19.3196 11.2278C18.4796 11.7691 17.3782 12.1891 16.0156 12.4878C14.6529 12.7865 12.9916 12.9358 11.0316 12.9358ZM11.0316 9.99581C12.5062 9.99581 13.7196 9.92114 14.6716 9.77181C15.6422 9.60381 16.4076 9.37047 16.9676 9.07181C17.5276 8.77314 17.9196 8.40914 18.1436 7.97981C18.3676 7.55047 18.4796 7.07447 18.4796 6.55181C18.4796 6.02914 18.3769 5.56247 18.1716 5.15181C17.9849 4.72248 17.6116 4.35847 17.0516 4.05981C16.5102 3.76114 15.7542 3.52781 14.7836 3.35981C13.8316 3.19181 12.5809 3.10781 11.0316 3.10781C9.5009 3.10781 8.25023 3.19181 7.27956 3.35981C6.3089 3.52781 5.54356 3.76114 4.98356 4.05981C4.44223 4.35847 4.0689 4.72248 3.86356 5.15181C3.6769 5.56247 3.58356 6.02914 3.58356 6.55181C3.58356 7.07447 3.69556 7.55047 3.91956 7.97981C4.14356 8.40914 4.53556 8.77314 5.09556 9.07181C5.65556 9.37047 6.41156 9.60381 7.36356 9.77181C8.33423 9.92114 9.5569 9.99581 11.0316 9.99581ZM22.0356 15.0078V17.9198H12.6836V24.6958H9.37956V17.9198H-0.000437468V15.0078H22.0356ZM47.2948 5.29181V8.23181H44.6068V13.6918H41.3868V-0.000191927H44.6068V5.29181H47.2948ZM23.4948 10.8918C25.7162 10.5558 27.5268 10.1731 28.9268 9.74381C30.3268 9.29581 31.4282 8.81981 32.2308 8.31581C33.0335 7.79314 33.5748 7.23314 33.8548 6.63581C34.1535 6.01981 34.3028 5.36647 34.3028 4.67581V3.61181H24.2508V0.727807H37.4948V5.03981C37.4948 6.06648 37.2615 7.03714 36.7948 7.95181C36.3282 8.86647 35.5535 9.69714 34.4708 10.4438C33.4068 11.1905 32.0068 11.8438 30.2708 12.4038C28.5348 12.9638 26.3975 13.4118 23.8588 13.7478L23.4948 10.8918ZM35.0308 25.1718C33.0148 25.1718 31.3535 25.0411 30.0468 24.7798C28.7402 24.5371 27.7042 24.1825 26.9388 23.7158C26.1735 23.2678 25.6415 22.7265 25.3428 22.0918C25.0442 21.4385 24.8948 20.7105 24.8948 19.9078C24.8948 19.1238 25.0348 18.4145 25.3148 17.7798C25.6135 17.1265 26.1362 16.5758 26.8828 16.1278C27.6482 15.6611 28.6842 15.3065 29.9908 15.0638C31.3162 14.8211 32.9962 14.6998 35.0308 14.6998C37.0655 14.6998 38.7362 14.8211 40.0428 15.0638C41.3682 15.3065 42.4042 15.6611 43.1508 16.1278C43.9162 16.5758 44.4388 17.1265 44.7188 17.7798C45.0175 18.4145 45.1668 19.1238 45.1668 19.9078C45.1668 20.7105 45.0175 21.4385 44.7188 22.0918C44.4202 22.7265 43.8882 23.2678 43.1228 23.7158C42.3575 24.1825 41.3215 24.5371 40.0148 24.7798C38.7082 25.0411 37.0468 25.1718 35.0308 25.1718ZM35.0308 22.2318C36.3562 22.2318 37.4575 22.1945 38.3348 22.1198C39.2308 22.0451 39.9402 21.9145 40.4628 21.7278C41.0042 21.5411 41.3775 21.3078 41.5828 21.0278C41.8068 20.7291 41.9188 20.3651 41.9188 19.9358C41.9188 19.5438 41.8068 19.2078 41.5828 18.9278C41.3775 18.6291 41.0135 18.3865 40.4908 18.1998C39.9682 18.0131 39.2588 17.8731 38.3628 17.7798C37.4855 17.6865 36.3748 17.6398 35.0308 17.6398C33.6868 17.6398 32.5668 17.6865 31.6708 17.7798C30.7935 17.8731 30.0935 18.0131 29.5708 18.1998C29.0482 18.3865 28.6748 18.6291 28.4508 18.9278C28.2455 19.2078 28.1428 19.5438 28.1428 19.9358C28.1428 20.3651 28.2455 20.7291 28.4508 21.0278C28.6748 21.3078 29.0482 21.5411 29.5708 21.7278C30.1122 21.9145 30.8215 22.0451 31.6988 22.1198C32.5948 22.1945 33.7055 22.2318 35.0308 22.2318ZM48.5021 0.727807H62.3901V2.91181H66.4501V-0.000191927H69.6701V18.1158H66.4501V12.9638H62.3901V15.1758H48.5021V0.727807ZM51.7221 3.63981V12.2638H59.1701V3.63981H51.7221ZM62.3901 10.0238H66.4501V5.85181H62.3901V10.0238ZM70.1181 21.4478V24.3878H49.4541V16.7438H52.7021V21.4478H70.1181ZM99.489 -0.000191927V24.2758H96.269V-0.000191927H99.489ZM92.909 19.5158V22.4558H78.461V0.727807H92.629V3.66781H81.709V19.5158H92.909ZM123.572 -0.000191927V24.2758H120.352V-0.000191927H123.572ZM116.572 3.69581H111.084V12.5438C111.084 13.5145 111.159 14.3545 111.308 15.0638C111.476 15.7731 111.775 16.4078 112.204 16.9678C112.634 17.5091 113.231 18.0225 113.996 18.5078C114.78 18.9745 115.788 19.4691 117.02 19.9918L116.264 22.7358C115.648 22.5865 115.014 22.3811 114.36 22.1198C113.707 21.8585 113.072 21.5598 112.456 21.2238C111.859 20.8878 111.29 20.5331 110.748 20.1598C110.226 19.7865 109.787 19.4038 109.432 19.0118C109.078 19.4225 108.639 19.8425 108.116 20.2718C107.612 20.6825 107.043 21.0745 106.408 21.4478C105.792 21.8211 105.12 22.1665 104.392 22.4838C103.683 22.7825 102.946 23.0438 102.18 23.2678L101.536 20.3278C102.806 19.7678 103.851 19.2358 104.672 18.7318C105.494 18.2278 106.138 17.6865 106.604 17.1078C107.071 16.5291 107.388 15.8758 107.556 15.1478C107.743 14.4198 107.836 13.5518 107.836 12.5438V3.69581H102.264V0.727807H116.572V3.69581ZM147.656 -0.000191927V13.2718H144.436V8.11981H141.244V5.26381H144.436V-0.000191927H147.656ZM140.74 10.1358V12.7678H126.46V0.727807H140.46V3.35981H129.68V5.43181H140.18V8.06381H129.68V10.1358H140.74ZM147.656 14.0838V20.6638H130.632V22.0078H147.908V24.6398H127.496V18.0318H144.52V16.7158H127.552V14.0838H147.656ZM179.182 9.77181V12.7118H176.494V24.2758H173.274V-0.000191927H176.494V9.77181H179.182ZM162.886 23.3798C161.636 23.3798 160.572 23.1931 159.694 22.8198C158.817 22.4278 158.098 21.7838 157.538 20.8878C156.978 19.9918 156.568 18.8065 156.306 17.3318C156.045 15.8385 155.914 13.9905 155.914 11.7878C155.914 9.56647 156.045 7.71847 156.306 6.24381C156.568 4.75047 156.978 3.55581 157.538 2.65981C158.098 1.76381 158.817 1.12914 159.694 0.755808C160.572 0.382474 161.636 0.195807 162.886 0.195807C164.137 0.195807 165.201 0.382474 166.078 0.755808C166.956 1.12914 167.674 1.76381 168.234 2.65981C168.794 3.55581 169.205 4.75047 169.466 6.24381C169.728 7.71847 169.858 9.56647 169.858 11.7878C169.858 13.9905 169.728 15.8385 169.466 17.3318C169.205 18.8065 168.794 19.9918 168.234 20.8878C167.674 21.7838 166.956 22.4278 166.078 22.8198C165.201 23.1931 164.137 23.3798 162.886 23.3798ZM162.886 20.4398C163.54 20.4398 164.1 20.3278 164.566 20.1038C165.033 19.8798 165.416 19.4505 165.714 18.8158C166.032 18.1811 166.265 17.3038 166.414 16.1838C166.564 15.0451 166.638 13.5798 166.638 11.7878C166.638 9.99581 166.564 8.53981 166.414 7.41981C166.265 6.28114 166.032 5.39447 165.714 4.75981C165.416 4.12514 165.033 3.69581 164.566 3.47181C164.1 3.24781 163.54 3.13581 162.886 3.13581C162.233 3.13581 161.673 3.24781 161.206 3.47181C160.74 3.69581 160.348 4.12514 160.03 4.75981C159.732 5.39447 159.508 6.28114 159.358 7.41981C159.209 8.53981 159.134 9.99581 159.134 11.7878C159.134 13.5798 159.209 15.0451 159.358 16.1838C159.508 17.3038 159.732 18.1811 160.03 18.8158C160.348 19.4505 160.74 19.8798 161.206 20.1038C161.673 20.3278 162.233 20.4398 162.886 20.4398ZM203.266 9.77181V12.7118H200.578V24.2758H197.358V-0.000191927H200.578V9.77181H203.266ZM179.186 20.2438C180.474 19.6838 181.631 19.1145 182.658 18.5358C183.703 17.9385 184.627 17.3225 185.43 16.6878C186.232 16.0531 186.923 15.3811 187.502 14.6718C188.08 13.9625 188.566 13.2065 188.958 12.4038H180.138V9.46381H189.91C190.152 8.30647 190.274 6.99981 190.274 5.54381V3.66781H180.194V0.727807H193.466V6.01981C193.466 7.96114 193.223 9.76247 192.738 11.4238C192.271 13.0851 191.515 14.6345 190.47 16.0718C189.424 17.5091 188.052 18.8531 186.354 20.1038C184.674 21.3358 182.611 22.5118 180.166 23.6318L179.186 20.2438ZM225.641 -0.000191927V24.2758H222.421V-0.000191927H225.641ZM211.389 23.3798C210.138 23.3798 209.056 23.1931 208.141 22.8198C207.226 22.4278 206.47 21.7838 205.873 20.8878C205.276 19.9918 204.828 18.8065 204.529 17.3318C204.23 15.8385 204.081 13.9905 204.081 11.7878C204.081 9.56647 204.23 7.71847 204.529 6.24381C204.828 4.75047 205.276 3.55581 205.873 2.65981C206.47 1.76381 207.226 1.12914 208.141 0.755808C209.056 0.382474 210.138 0.195807 211.389 0.195807C212.64 0.195807 213.722 0.382474 214.637 0.755808C215.552 1.12914 216.308 1.76381 216.905 2.65981C217.521 3.55581 217.969 4.75047 218.249 6.24381C218.548 7.71847 218.697 9.56647 218.697 11.7878C218.697 13.9905 218.548 15.8385 218.249 17.3318C217.969 18.8065 217.521 19.9918 216.905 20.8878C216.308 21.7838 215.552 22.4278 214.637 22.8198C213.722 23.1931 212.64 23.3798 211.389 23.3798ZM211.389 20.4398C212.042 20.4398 212.621 20.3278 213.125 20.1038C213.629 19.8798 214.058 19.4505 214.413 18.8158C214.768 18.1811 215.029 17.3038 215.197 16.1838C215.384 15.0451 215.477 13.5798 215.477 11.7878C215.477 9.99581 215.384 8.53981 215.197 7.41981C215.029 6.28114 214.768 5.39447 214.413 4.75981C214.058 4.12514 213.629 3.69581 213.125 3.47181C212.621 3.24781 212.042 3.13581 211.389 3.13581C210.736 3.13581 210.157 3.24781 209.653 3.47181C209.149 3.69581 208.72 4.12514 208.365 4.75981C208.01 5.39447 207.74 6.28114 207.553 7.41981C207.385 8.53981 207.301 9.99581 207.301 11.7878C207.301 13.5798 207.385 15.0451 207.553 16.1838C207.74 17.3038 208.01 18.1811 208.365 18.8158C208.72 19.4505 209.149 19.8798 209.653 20.1038C210.157 20.3278 210.736 20.4398 211.389 20.4398ZM249.724 -0.000191927V14.1118H246.504V-0.000191927H249.724ZM228.556 0.419808H231.804V4.39581H239.364V0.419808H242.612V13.4958H228.556V0.419808ZM231.804 7.25181V10.6398H239.364V7.25181H231.804ZM239.784 25.1718C237.731 25.1718 236.032 25.0505 234.688 24.8078C233.344 24.5838 232.28 24.2571 231.496 23.8278C230.712 23.3985 230.162 22.8758 229.844 22.2598C229.527 21.6251 229.368 20.9158 229.368 20.1318C229.368 19.3478 229.527 18.6478 229.844 18.0318C230.162 17.3971 230.712 16.8651 231.496 16.4358C232.28 16.0065 233.344 15.6798 234.688 15.4558C236.032 15.2131 237.731 15.0918 239.784 15.0918C241.838 15.0918 243.536 15.2131 244.88 15.4558C246.224 15.6798 247.288 16.0065 248.072 16.4358C248.856 16.8651 249.407 17.3971 249.724 18.0318C250.042 18.6478 250.2 19.3478 250.2 20.1318C250.2 20.9158 250.042 21.6251 249.724 22.2598C249.407 22.8758 248.856 23.3985 248.072 23.8278C247.288 24.2571 246.224 24.5838 244.88 24.8078C243.536 25.0505 241.838 25.1718 239.784 25.1718ZM239.784 22.2878C241.184 22.2878 242.342 22.2505 243.256 22.1758C244.19 22.0825 244.927 21.9425 245.468 21.7558C246.028 21.5691 246.411 21.3451 246.616 21.0838C246.84 20.8038 246.952 20.4865 246.952 20.1318C246.952 19.7585 246.84 19.4411 246.616 19.1798C246.411 18.9185 246.028 18.6945 245.468 18.5078C244.927 18.3211 244.19 18.1905 243.256 18.1158C242.342 18.0225 241.184 17.9758 239.784 17.9758C238.384 17.9758 237.218 18.0225 236.284 18.1158C235.37 18.1905 234.632 18.3211 234.072 18.5078C233.531 18.6945 233.148 18.9185 232.924 19.1798C232.719 19.4411 232.616 19.7585 232.616 20.1318C232.616 20.4865 232.719 20.8038 232.924 21.0838C233.148 21.3451 233.531 21.5691 234.072 21.7558C234.632 21.9425 235.37 22.0825 236.284 22.1758C237.218 22.2505 238.384 22.2878 239.784 22.2878Z" fill="white"/>
</svg>
