<svg width="24" height="24" viewBox="0 0 24 24" fill="none" xmlns="http://www.w3.org/2000/svg">
<rect width="24" height="24" rx="4" fill="#3B5F8F"/>
<path d="M17.5 15.4999C17.7652 15.4999 18.0196 15.3945 18.2071 15.207C18.3946 15.0195 18.5 14.7651 18.5 14.4999V12.4999C18.5 12.2347 18.3946 11.9803 18.2071 11.7928C18.0196 11.6053 17.7652 11.4999 17.5 11.4999H16L15.23 9.17989C15.1604 8.97291 15.025 8.7944 14.8444 8.67161C14.6639 8.54882 14.4481 8.48851 14.23 8.4999H10.22C10.0019 8.48851 9.78614 8.54882 9.60557 8.67161C9.425 8.7944 9.28958 8.97291 9.22 9.17989L8.5 11.4999H6.5C6.23478 11.4999 5.98043 11.6053 5.79289 11.7928C5.60536 11.9803 5.5 12.2347 5.5 12.4999V14.4999C5.5 14.7651 5.60536 15.0195 5.79289 15.207C5.98043 15.3945 6.23478 15.4999 6.5 15.4999" stroke="white" stroke-linecap="round" stroke-linejoin="round"/>
<path d="M8.5 17.5C9.60457 17.5 10.5 16.6046 10.5 15.5C10.5 14.3954 9.60457 13.5 8.5 13.5C7.39543 13.5 6.5 14.3954 6.5 15.5C6.5 16.6046 7.39543 17.5 8.5 17.5Z" stroke="white" stroke-linecap="round" stroke-linejoin="round"/>
<path d="M15.5 17.5C16.6046 17.5 17.5 16.6046 17.5 15.5C17.5 14.3954 16.6046 13.5 15.5 13.5C14.3954 13.5 13.5 14.3954 13.5 15.5C13.5 16.6046 14.3954 17.5 15.5 17.5Z" stroke="white" stroke-linecap="round" stroke-linejoin="round"/>
<path d="M10.5 15.5H13.5" stroke="white" stroke-linecap="round" stroke-linejoin="round"/>
<path d="M12 8.5V6.5" stroke="white" stroke-linecap="round" stroke-linejoin="round"/>
</svg>
