<svg width="24" height="24" viewBox="0 0 24 24" fill="none" xmlns="http://www.w3.org/2000/svg">
<rect width="24" height="24" rx="4" fill="#3B5F8F"/>
<path d="M16.5 5.5H7.5C6.94772 5.5 6.5 5.94772 6.5 6.5V16C6.5 16.5523 6.94772 17 7.5 17H16.5C17.0523 17 17.5 16.5523 17.5 16V6.5C17.5 5.94772 17.0523 5.5 16.5 5.5Z" stroke="white" stroke-linecap="round" stroke-linejoin="round"/>
<path d="M8.5 17V18.5" stroke="white" stroke-linecap="round" stroke-linejoin="round"/>
<path d="M15.5 17V18.5" stroke="white" stroke-linecap="round" stroke-linejoin="round"/>
<path d="M6.5 12H17.5" stroke="white" stroke-linecap="round" stroke-linejoin="round"/>
<path d="M9 15C9.27614 15 9.5 14.7761 9.5 14.5C9.5 14.2239 9.27614 14 9 14C8.72386 14 8.5 14.2239 8.5 14.5C8.5 14.7761 8.72386 15 9 15Z" stroke="white" stroke-linecap="round" stroke-linejoin="round"/>
<path d="M15 15C15.2761 15 15.5 14.7761 15.5 14.5C15.5 14.2239 15.2761 14 15 14C14.7239 14 14.5 14.2239 14.5 14.5C14.5 14.7761 14.7239 15 15 15Z" stroke="white" stroke-linecap="round" stroke-linejoin="round"/>
</svg>
